<svg xmlns="http://www.w3.org/2000/svg" fill="none" viewBox="0 0 657.2 657.2"><path d="M128.4 77.5l-9 6.6-6.5 5.2-5.1 4.3 4.8-4.9 5.8-5.8 8.3-7.4a294.5 294.5 0 0139.2-29l5.3-3.1c4-2.4 8.2-5 12.7-7.2 13.7-7.3 28-13.5 42.6-18.6A314.7 314.7 0 01332.8 0l14.1.5c4.8.1 9.6.5 14.4 1l14.5 1.7c3.4.4 6.7 1 10 1.6l4.4.8c19 3.7 37.5 9 55.5 15.8a322.1 322.1 0 0154 27.5l7.5 4.6 10.7 7.7c5.4 3.8 10.3 8 15.1 12 1.6 1.4 3.2 2.8 4.8 4l4.7 4.1 4.4 4 8.3 8.7c2.9 2.7 5.6 5.5 8 8.4l7.4 8.2 3.6 4 3.1 4 6.2 8.1c3.3 4.1 6 8.3 8.6 12.3l2 3a286.8 286.8 0 0120.1 36l3.4 7.5 2.8 6.3-3.4-6-2.4-4.2a138 138 0 00-11.5-18.4c-3.7-5.6-7.8-11.9-13-18.3l-.5-.7c-3.3-4.4-6.8-9-11-13.6l-6.5-7.5-3.3-4-3.7-3.7a350.4 350.4 0 00-33.5-30.7l-4.6-3.6c-4.9-3.8-9.9-7.6-15.3-11L501.1 63l-7.8-4.7-3.4-2c-15.6-9-31.9-16.7-48.7-23.2a326.2 326.2 0 00-53.5-14.7l-4.7-1-9-1.6-13.7-1.5-6.9-.8c-2.2-.4-4.7-.4-7-.4l-14-.6a335.4 335.4 0 00-102.8 14.3 326.8 326.8 0 00-60.6 25l-5.5 3.2a296.1 296.1 0 00-35.2 22.6zm521.9 262.3l.6-11.4v11.4c.2 3.7 0 8.3-.3 13.6l-.1 3.4-.3 5.3-1 9.9a313.3 313.3 0 01-33 110.1 322.4 322.4 0 01-239.5 171.4 360 360 0 01-48.3 3.7 336.8 336.8 0 01-94.7-14.2 320.6 320.6 0 01-119.4-66.6 322.7 322.7 0 01-73.5-94.1A312.9 312.9 0 017.8 372l-1-9.8c-.2-3.1-.4-6-.4-8.7-.4-5.4-.4-10-.4-13.7v-11.4l.6 11.3c.2 3.7.6 8.3 1.3 13.6l1 8.6 1.4 9.6A305 305 0 0021.8 420c6.6 20.4 15.2 40 25.5 58.8a331.4 331.4 0 0074 89.6c3.8 3.3 7.9 6.4 12 9.6l4.7 3.6c2.4 2 5 3.7 7.5 5.4l1.3.9 1.6 1A321.5 321.5 0 00282.2 641a325.7 325.7 0 00137.5-9.8 320.6 320.6 0 0083.6-38.7c2.3-1.5 4.6-2.9 6.8-4.6a134.2 134.2 0 018.8-6.2l4.8-3.7c4-3.1 8-6.2 11.9-9.6a331.1 331.1 0 0074-89.7c10.3-18.7 18.9-38.3 25.5-58.7 5.2-15.7 9-31.9 11.5-48.3l1.5-9.7 1-8.5v-.6c.6-5.1 1.2-9.5 1.2-13z" clip-rule="evenodd" fill="#616372" fill-rule="evenodd"></path><path d="M139.6 206.5a134.5 134.5 0 0125.7 21.1c12.5 8.4-5.1 65-5.1 67.3 2.4 0 29.8-10.4 55.7-57.4 2.7-4.8 8.3 3 6 8-21.2 51.8-57.8 66.7-64 63.2-5.1 26.5-15.6 123.3-19.7 133.4-13.5 48-62.3 17.3-67.7 15.2-66.7-48.3 45.3-135.5 45.3-135.5 1.2-12 1-14.3 2.1-26.3-59.6 60-88.2-20.2-86-52.7 9.4-147.4 87.5-144.2 99.4-140 33.7 9 34.6 61 31.6 72.4-3 11.3-9.9 2.7-9.9 2.7-.5-7.5-4.4-68.5-25.6-58.1-36.6 19.3-51.2 82.2-59 135-9.5 56.2 42 39 50.4 26.4 5-16 14.6-62.2 20.8-74.7zm-24 130.8c-50.1 48.5-71.3 80.4-40 109.9 38.4 36 37.8-84.3 40-110z" fill="#616372"></path><path d="M260.1 290.8c9.8 1.8 17-5.4 33-32.5 5.4-6.5 4.2-99.8 12.3-102.2 13 2.4 31.9 13.7 29.5 28 0 17.9-3.3 96.3-3.9 108.8 9.5-6.9 36.6-20 48.9-57.8 0 0 5-3.6 7.4 0 4.2 1.8.9 8.6.9 8.6-9.2 29.8-42.3 55.4-56.6 62.6 1.5 83.7-5.7 117-9.2 126-23.6 59.6-77.5 41.7-84.6 23.8-15.2-38.7 10.4-102.2 55-143.9-.2-11 0-29.2-.2-35.7-30.1 52.7-63.5 12.2-68.8 3.3-17.6-27.5-2.7-73.6 2.6-88 2.4-5.3 9.9-10.3 16.4-8 8 3 14.6 10.8 12.2 19.7-6.2 37.8-5.3 83.4 5.1 87.3zm33 36.6c-53.3 52.4-51.2 96-48.8 116.8 2.4 16.7 12.8 21.1 29.5 13.1 33.4-14.9 18.8-112 19.4-129.9z" fill="#616372"></path><path d="M550.8 374.2c9 6 43.5-1.2 71.2-137.3 0 0 6-1.2 6.9.3 1.5 2 2.3 6.2 2.3 6.2-35.7 182-92.6 150.2-103 143-29.5-25.6-2.7-166.2.3-187 1.8-13.8-4.5-2.5-6.9 0-23 42.2-37.5 92.6-44 106.9a21 21 0 00-3.6 11.3c-2.4 8-6.6 12-13.2 6.5-8.9-6.5-19.3-16-19.3-27.4-2.4-24.4 13-85.8 9.8-88.7-7.7-1.8-36 45.8-39 67.3-3.3 21.1-13.7 23-19 20-19.4-18.8-16.8-81.4-8.7-107 3-11.3 11.3-11.3 20.2-4.8 12.9 7.2 14 15.5 11.7 22a593.4 593.4 0 00-5.4 44.2c16.7-33.1 25-42.3 33-51.3 5.4-5.3 12.9-4.4 15.9-1.5 29.7 14.6 15.1 67 17.5 70 0-2.3 29-67.6 43.2-84.3 15-14.6 43.5 11.4 41.4 35.8-6.5 41.7-18.4 143.6-11.3 155.8z" fill="#616372"></path><g transform="translate(-274.2 -520.7)"><circle r="87.6" cx="716.6" cy="989.9" fill="#616372"></circle><path d="M709 1077.3V976.5l-28 4v-23l56-9v127s-5.8 1.6-13.9 2c-8 .5-14-.2-14-.2z" fill="#fff"></path></g></svg>